<mxfile host="65bd71144e">
    <diagram id="WWFvyDDlqFFJk4Oy8G7E" name="Page-1">
        <mxGraphModel dx="1693" dy="1528" grid="1" gridSize="10" guides="1" tooltips="1" connect="1" arrows="1" fold="1" page="1" pageScale="1" pageWidth="850" pageHeight="1100" math="0" shadow="0">
            <root>
                <mxCell id="0"/>
                <mxCell id="1" parent="0"/>
                <mxCell id="42" value="CurrentAccount" style="html=1;overflow=block;blockSpacing=1;swimlane;childLayout=stackLayout;horizontal=1;horizontalStack=0;resizeParent=1;resizeParentMax=0;resizeLast=0;collapsible=0;fontStyle=0;marginBottom=0;swimlaneFillColor=#edf5ff;startSize=28;whiteSpace=wrap;fontSize=16;align=left;spacing=0;strokeOpacity=100;fillOpacity=100;rounded=1;absoluteArcSize=1;arcSize=9;strokeWidth=1.5;" vertex="1" parent="1">
                    <mxGeometry x="-638" y="-761.5" width="285" height="200.5" as="geometry"/>
                </mxCell>
                <mxCell id="43" value="- overdraft_limit: float " style="part=1;html=1;resizeHeight=0;align=left;verticalAlign=middle;spacingLeft=4;spacingRight=4;overflow=hidden;rotatable=0;points=[[0,0.5],[1,0.5]];portConstraint=eastwest;swimlaneFillColor=#edf5ff;strokeOpacity=100;fillOpacity=100;whiteSpace=wrap;fontSize=16;" vertex="1" parent="42">
                    <mxGeometry y="28" width="285" height="83" as="geometry"/>
                </mxCell>
                <mxCell id="44" value="" style="line;strokeWidth=1;align=left;verticalAlign=middle;spacingTop=-1;spacingLeft=3;spacingRight=3;rotatable=0;labelPosition=right;points=[];portConstraint=eastwest;" vertex="1" parent="42">
                    <mxGeometry y="111" width="285" height="8" as="geometry"/>
                </mxCell>
                <mxCell id="45" value="+CurrentAccount(_name, email, balance, overdraft_limit) +getOverdraft_limit(): float +setOverdraft_limit(overdraft_limit: float): void" style="part=1;html=1;resizeHeight=0;align=left;verticalAlign=middle;spacingLeft=4;spacingRight=4;overflow=hidden;rotatable=0;points=[[0,0.5],[1,0.5]];portConstraint=eastwest;swimlaneFillColor=#edf5ff;strokeOpacity=100;fillOpacity=100;whiteSpace=wrap;fontSize=16;" vertex="1" parent="42">
                    <mxGeometry y="119" width="285" height="81.5" as="geometry"/>
                </mxCell>
                <mxCell id="46" value="SavingsAccount" style="html=1;overflow=block;blockSpacing=1;swimlane;childLayout=stackLayout;horizontal=1;horizontalStack=0;resizeParent=1;resizeParentMax=0;resizeLast=0;collapsible=0;fontStyle=0;marginBottom=0;swimlaneFillColor=#edf5ff;startSize=28;whiteSpace=wrap;fontSize=16;align=left;spacing=0;strokeOpacity=100;fillOpacity=100;rounded=1;absoluteArcSize=1;arcSize=9;strokeWidth=1.5;" vertex="1" parent="1">
                    <mxGeometry x="-1805" y="-767.5" width="510" height="237.5" as="geometry"/>
                </mxCell>
                <mxCell id="47" value="&lt;div style=&quot;display: flex; justify-content: null; text-align: null; align-items: baseline; font-size: 0; line-height: 1.25;margin-top: -2px;&quot;&gt;&lt;span&gt;&lt;span style=&quot;font-size:16px;&quot;&gt;- interest_rate: float &#10;&lt;/span&gt;&lt;/span&gt;&lt;/div&gt;&lt;div style=&quot;display: flex; justify-content: null; text-align: null; align-items: baseline; font-size: 0; line-height: 1.25;margin-top: -2px;&quot;&gt;&lt;span&gt;&lt;span style=&quot;font-size:16px;&quot;&gt;- minimum_balance: float&lt;/span&gt;&lt;/span&gt;&lt;/div&gt;" style="part=1;html=1;resizeHeight=0;align=left;verticalAlign=middle;spacingLeft=4;spacingRight=4;overflow=hidden;rotatable=0;points=[[0,0.5],[1,0.5]];portConstraint=eastwest;swimlaneFillColor=#edf5ff;strokeOpacity=100;fillOpacity=100;whiteSpace=wrap;fontSize=16;" vertex="1" parent="46">
                    <mxGeometry y="28" width="510" height="102" as="geometry"/>
                </mxCell>
                <mxCell id="48" value="" style="line;strokeWidth=1;align=left;verticalAlign=middle;spacingTop=-1;spacingLeft=3;spacingRight=3;rotatable=0;labelPosition=right;points=[];portConstraint=eastwest;" vertex="1" parent="46">
                    <mxGeometry y="130" width="510" height="8" as="geometry"/>
                </mxCell>
                <mxCell id="49" value="&lt;div style=&quot;display: flex; justify-content: null; text-align: null; align-items: baseline; font-size: 0; line-height: 1.25;margin-top: -2px;&quot;&gt;&lt;span&gt;&lt;span style=&quot;font-size:16px;&quot;&gt;+SavingsAccount(_name, emai, balance, min_balance, interest_rate) &#10;&lt;/span&gt;&lt;/span&gt;&lt;/div&gt;&lt;div style=&quot;display: flex; justify-content: null; text-align: null; align-items: baseline; font-size: 0; line-height: 1.25;margin-top: -2px;&quot;&gt;&lt;span&gt;&lt;span style=&quot;font-size:16px;&quot;&gt;+getInterest_rate(): float &#10;&lt;/span&gt;&lt;/span&gt;&lt;/div&gt;&lt;div style=&quot;display: flex; justify-content: null; text-align: null; align-items: baseline; font-size: 0; line-height: 1.25;margin-top: -2px;&quot;&gt;&lt;span&gt;&lt;span style=&quot;font-size:16px;&quot;&gt;+setInterest_rate(interest_rate: float): void&#10;&lt;/span&gt;&lt;/span&gt;&lt;/div&gt;&lt;div style=&quot;display: flex; justify-content: null; text-align: null; align-items: baseline; font-size: 0; line-height: 1.25;margin-top: -2px;&quot;&gt;&lt;span&gt;&lt;span style=&quot;font-size:16px;&quot;&gt;+getMinimum_balance(): float &#10;&lt;/span&gt;&lt;/span&gt;&lt;/div&gt;&lt;div style=&quot;display: flex; justify-content: null; text-align: null; align-items: baseline; font-size: 0; line-height: 1.25;margin-top: -2px;&quot;&gt;&lt;span&gt;&lt;span style=&quot;font-size:16px;&quot;&gt;+setMin_balance(minimum_balance: float): void&lt;/span&gt;&lt;/span&gt;&lt;/div&gt;" style="part=1;resizeHeight=0;align=left;verticalAlign=middle;spacingLeft=4;spacingRight=4;rotatable=0;points=[[0,0.5],[1,0.5]];portConstraint=eastwest;swimlaneFillColor=#edf5ff;strokeOpacity=100;fillOpacity=100;whiteSpace=wrap;overflow=block;blockSpacing=1;html=1;fontSize=13;" vertex="1" parent="46">
                    <mxGeometry y="138" width="510" height="99.5" as="geometry"/>
                </mxCell>
                <mxCell id="50" value="BusinessAccount" style="html=1;overflow=block;blockSpacing=1;swimlane;childLayout=stackLayout;horizontal=1;horizontalStack=0;resizeParent=1;resizeParentMax=0;resizeLast=0;collapsible=0;fontStyle=0;marginBottom=0;swimlaneFillColor=#edf5ff;startSize=28;whiteSpace=wrap;fontSize=16;align=left;spacing=0;strokeOpacity=100;fillOpacity=100;rounded=1;absoluteArcSize=1;arcSize=9;strokeWidth=1.5;" vertex="1" parent="1">
                    <mxGeometry x="-1222" y="-759" width="495" height="218.5" as="geometry"/>
                </mxCell>
                <mxCell id="51" value="&lt;div style=&quot;display: flex; justify-content: null; text-align: null; align-items: baseline; font-size: 0; line-height: 1.25;margin-top: -2px;&quot;&gt;&lt;span&gt;&lt;span style=&quot;font-size:16px;&quot;&gt;- credit_limit: float &#10;&lt;/span&gt;&lt;/span&gt;&lt;/div&gt;&lt;div style=&quot;display: flex; justify-content: null; text-align: null; align-items: baseline; font-size: 0; line-height: 1.25;margin-top: -2px;&quot;&gt;&lt;span&gt;&lt;span style=&quot;font-size:16px;&quot;&gt;- transaction_fee: float &lt;/span&gt;&lt;/span&gt;&lt;/div&gt;" style="part=1;html=1;resizeHeight=0;align=left;verticalAlign=middle;spacingLeft=4;spacingRight=4;overflow=hidden;rotatable=0;points=[[0,0.5],[1,0.5]];portConstraint=eastwest;swimlaneFillColor=#edf5ff;strokeOpacity=100;fillOpacity=100;whiteSpace=wrap;fontSize=16;" vertex="1" parent="50">
                    <mxGeometry y="28" width="495" height="92" as="geometry"/>
                </mxCell>
                <mxCell id="52" value="" style="line;strokeWidth=1;align=left;verticalAlign=middle;spacingTop=-1;spacingLeft=3;spacingRight=3;rotatable=0;labelPosition=right;points=[];portConstraint=eastwest;" vertex="1" parent="50">
                    <mxGeometry y="120" width="495" height="8" as="geometry"/>
                </mxCell>
                <mxCell id="53" value="&lt;div style=&quot;display: flex; justify-content: null; text-align: null; align-items: baseline; font-size: 0; line-height: 1.25;margin-top: -2px;&quot;&gt;&lt;span&gt;&lt;span style=&quot;font-size:16px;&quot;&gt;+BusinessAccount(_name, email, balance, credit_limit, trans_fee) &#10;&lt;/span&gt;&lt;/span&gt;&lt;/div&gt;&lt;div style=&quot;display: flex; justify-content: null; text-align: null; align-items: baseline; font-size: 0; line-height: 1.25;margin-top: -2px;&quot;&gt;&lt;span&gt;&lt;span style=&quot;font-size:16px;&quot;&gt;+getCredit_limit(): float &#10;&lt;/span&gt;&lt;/span&gt;&lt;/div&gt;&lt;div style=&quot;display: flex; justify-content: null; text-align: null; align-items: baseline; font-size: 0; line-height: 1.25;margin-top: -2px;&quot;&gt;&lt;span&gt;&lt;span style=&quot;font-size:16px;&quot;&gt;+setCredit_limit(credit_limit: float): void &#10;&lt;/span&gt;&lt;/span&gt;&lt;/div&gt;&lt;div style=&quot;display: flex; justify-content: null; text-align: null; align-items: baseline; font-size: 0; line-height: 1.25;margin-top: -2px;&quot;&gt;&lt;span&gt;&lt;span style=&quot;font-size:16px;&quot;&gt;+getTransaction_fee(): float &#10;&lt;/span&gt;&lt;/span&gt;&lt;/div&gt;&lt;div style=&quot;display: flex; justify-content: null; text-align: null; align-items: baseline; font-size: 0; line-height: 1.25;margin-top: -2px;&quot;&gt;&lt;span&gt;&lt;span style=&quot;font-size:16px;&quot;&gt;+setTrans_fee(trans_fee: float): void&lt;/span&gt;&lt;/span&gt;&lt;/div&gt;" style="part=1;resizeHeight=0;align=left;verticalAlign=middle;spacingLeft=4;spacingRight=4;rotatable=0;points=[[0,0.5],[1,0.5]];portConstraint=eastwest;swimlaneFillColor=#edf5ff;strokeOpacity=100;fillOpacity=100;whiteSpace=wrap;overflow=block;blockSpacing=1;html=1;fontSize=13;" vertex="1" parent="50">
                    <mxGeometry y="128" width="495" height="90.5" as="geometry"/>
                </mxCell>
                <mxCell id="54" value="Account" style="html=1;overflow=block;blockSpacing=1;swimlane;childLayout=stackLayout;horizontal=1;horizontalStack=0;resizeParent=1;resizeParentMax=0;resizeLast=0;collapsible=0;fontStyle=0;marginBottom=0;swimlaneFillColor=#edf5ff;startSize=28;whiteSpace=wrap;fontSize=16;align=left;spacing=0;strokeOpacity=100;fillOpacity=100;rounded=1;absoluteArcSize=1;arcSize=9;strokeWidth=1.5;" vertex="1" parent="1">
                    <mxGeometry x="-1282" y="-1271.5" width="612" height="332.5" as="geometry"/>
                </mxCell>
                <mxCell id="55" value="&lt;div style=&quot;display: flex; justify-content: null; text-align: null; align-items: baseline; font-size: 0; line-height: 1.25;margin-top: -2px;&quot;&gt;&lt;span&gt;&lt;span style=&quot;font-size:16px;&quot;&gt;#customer_id: int &#10;&lt;/span&gt;&lt;/span&gt;&lt;/div&gt;&lt;div style=&quot;display: flex; justify-content: null; text-align: null; align-items: baseline; font-size: 0; line-height: 1.25;margin-top: -2px;&quot;&gt;&lt;span&gt;&lt;span style=&quot;font-size:16px;&quot;&gt;#_name: string&#10;&lt;/span&gt;&lt;/span&gt;&lt;/div&gt;&lt;div style=&quot;display: flex; justify-content: null; text-align: null; align-items: baseline; font-size: 0; line-height: 1.25;margin-top: -2px;&quot;&gt;&lt;span&gt;&lt;span style=&quot;font-size:16px;&quot;&gt;#email: string &#10;&lt;/span&gt;&lt;/span&gt;&lt;/div&gt;&lt;div style=&quot;display: flex; justify-content: null; text-align: null; align-items: baseline; font-size: 0; line-height: 1.25;margin-top: -2px;&quot;&gt;&lt;span&gt;&lt;span style=&quot;font-size:16px;&quot;&gt;#balance: float&lt;/span&gt;&lt;/span&gt;&lt;/div&gt;" style="part=1;html=1;resizeHeight=0;align=left;verticalAlign=middle;spacingLeft=4;spacingRight=4;overflow=hidden;rotatable=0;points=[[0,0.5],[1,0.5]];portConstraint=eastwest;swimlaneFillColor=#edf5ff;strokeOpacity=100;fillOpacity=100;whiteSpace=wrap;fontSize=16;" vertex="1" parent="54">
                    <mxGeometry y="28" width="612" height="150" as="geometry"/>
                </mxCell>
                <mxCell id="56" value="" style="line;strokeWidth=1;align=left;verticalAlign=middle;spacingTop=-1;spacingLeft=3;spacingRight=3;rotatable=0;labelPosition=right;points=[];portConstraint=eastwest;" vertex="1" parent="54">
                    <mxGeometry y="178" width="612" height="8" as="geometry"/>
                </mxCell>
                <mxCell id="57" value="&lt;div style=&quot;display: flex; justify-content: null; text-align: null; align-items: baseline; font-size: 0; line-height: 1.25;margin-top: -2px;&quot;&gt;&lt;span&gt;&lt;span style=&quot;font-size:16px;&quot;&gt;+__Account(name: string, email: string, balance: float) +getCustomerId(): int &#10;&lt;/span&gt;&lt;/span&gt;&lt;/div&gt;&lt;div style=&quot;display: flex; justify-content: null; text-align: null; align-items: baseline; font-size: 0; line-height: 1.25;margin-top: -2px;&quot;&gt;&lt;span&gt;&lt;span style=&quot;font-size:16px;&quot;&gt;+setCustomerId(customer_id: int): void &#10;&lt;/span&gt;&lt;/span&gt;&lt;/div&gt;&lt;div style=&quot;display: flex; justify-content: null; text-align: null; align-items: baseline; font-size: 0; line-height: 1.25;margin-top: -2px;&quot;&gt;&lt;span&gt;&lt;span style=&quot;font-size:16px;&quot;&gt;+getName(): string &#10;&lt;/span&gt;&lt;/span&gt;&lt;/div&gt;&lt;div style=&quot;display: flex; justify-content: null; text-align: null; align-items: baseline; font-size: 0; line-height: 1.25;margin-top: -2px;&quot;&gt;&lt;span&gt;&lt;span style=&quot;font-size:16px;&quot;&gt;+setName(_name: string): void &#10;&lt;/span&gt;&lt;/span&gt;&lt;/div&gt;&lt;div style=&quot;display: flex; justify-content: null; text-align: null; align-items: baseline; font-size: 0; line-height: 1.25;margin-top: -2px;&quot;&gt;&lt;span&gt;&lt;span style=&quot;font-size:16px;&quot;&gt;+getEmail(): string &#10;&lt;/span&gt;&lt;/span&gt;&lt;/div&gt;&lt;div style=&quot;display: flex; justify-content: null; text-align: null; align-items: baseline; font-size: 0; line-height: 1.25;margin-top: -2px;&quot;&gt;&lt;span&gt;&lt;span style=&quot;font-size:16px;&quot;&gt;+setEmail(email: string): void &#10;&lt;/span&gt;&lt;/span&gt;&lt;/div&gt;&lt;div style=&quot;display: flex; justify-content: null; text-align: null; align-items: baseline; font-size: 0; line-height: 1.25;margin-top: -2px;&quot;&gt;&lt;span&gt;&lt;span style=&quot;font-size:16px;&quot;&gt;+getBalance(): float &#10;&lt;/span&gt;&lt;/span&gt;&lt;/div&gt;&lt;div style=&quot;display: flex; justify-content: null; text-align: null; align-items: baseline; font-size: 0; line-height: 1.25;margin-top: -2px;&quot;&gt;&lt;span&gt;&lt;span style=&quot;font-size:16px;&quot;&gt;+setBalance(balance: float): void&lt;/span&gt;&lt;/span&gt;&lt;/div&gt;" style="part=1;resizeHeight=0;align=left;verticalAlign=middle;spacingLeft=4;spacingRight=4;rotatable=0;points=[[0,0.5],[1,0.5]];portConstraint=eastwest;swimlaneFillColor=#edf5ff;strokeOpacity=100;fillOpacity=100;whiteSpace=wrap;overflow=block;blockSpacing=1;html=1;fontSize=13;" vertex="1" parent="54">
                    <mxGeometry y="186" width="612" height="146.5" as="geometry"/>
                </mxCell>
                <UserObject label="" lucidchartObjectId="~l.CDT2wr9gG" id="58">
                    <mxCell style="html=1;jettySize=18;whiteSpace=wrap;overflow=block;blockSpacing=1;fontSize=13;strokeOpacity=100;strokeWidth=0.8;rounded=1;arcSize=12;startArrow=none;endArrow=block;endFill=1;exitX=0.5;exitY=-0.004;exitPerimeter=0;entryX=0.388;entryY=1.002;entryPerimeter=0;edgeStyle=orthogonalEdgeStyle;" edge="1" parent="1" source="46" target="54">
                        <mxGeometry width="100" height="100" relative="1" as="geometry"/>
                    </mxCell>
                </UserObject>
                <UserObject label="" lucidchartObjectId="dm.Cui0hfecb" id="59">
                    <mxCell style="html=1;jettySize=18;whiteSpace=wrap;overflow=block;blockSpacing=1;fontSize=13;strokeOpacity=100;strokeWidth=0.8;rounded=1;arcSize=12;startArrow=none;endArrow=block;endFill=1;exitX=0.5;exitY=-0.004;exitPerimeter=0;entryX=0.559;entryY=1.002;entryPerimeter=0;edgeStyle=orthogonalEdgeStyle;" edge="1" parent="1" source="42" target="54">
                        <mxGeometry width="100" height="100" relative="1" as="geometry"/>
                    </mxCell>
                </UserObject>
                <UserObject label="" lucidchartObjectId="hm.CinU7.yrG" id="60">
                    <mxCell style="html=1;jettySize=18;whiteSpace=wrap;overflow=block;blockSpacing=1;fontSize=13;strokeOpacity=100;strokeWidth=0.8;rounded=1;arcSize=12;startArrow=none;endArrow=block;endFill=1;exitX=0.5;exitY=-0.004;exitPerimeter=0;entryX=0.5;entryY=1.002;entryPerimeter=0;edgeStyle=orthogonalEdgeStyle;" edge="1" parent="1" source="50" target="54">
                        <mxGeometry width="100" height="100" relative="1" as="geometry"/>
                    </mxCell>
                </UserObject>
                <mxCell id="61" value="" style="html=1;overflow=block;blockSpacing=1;align=center;whiteSpace=wrap;fontSize=13;spacing=0;rounded=1;absoluteArcSize=1;arcSize=9;strokeWidth=NaN;fillColor=#6d8764;strokeColor=#3A5431;fontColor=#ffffff;" vertex="1" parent="1">
                    <mxGeometry x="612" y="-1230.5" width="528" height="728" as="geometry"/>
                </mxCell>
                <UserObject label="Bank Employee" lucidchartObjectId="aF.C1J9vzcDG" id="62">
                    <mxCell style="html=1;overflow=block;blockSpacing=1;shape=umlActor;labelPosition=center;verticalLabelPosition=bottom;verticalAlign=top;whiteSpace=nowrap;fontSize=16;spacing=0;strokeOpacity=100;fillOpacity=100;rounded=1;absoluteArcSize=1;arcSize=9;strokeWidth=1.5;" vertex="1" parent="1">
                        <mxGeometry x="480" y="-958.5" width="83" height="181" as="geometry"/>
                    </mxCell>
                </UserObject>
                <UserObject label="Create a Bank Account" lucidchartObjectId="BI.C.S-nnqcA" id="63">
                    <mxCell style="html=1;overflow=block;blockSpacing=1;whiteSpace=wrap;ellipse;fontSize=16;spacing=3.8;strokeOpacity=100;fillOpacity=100;rounded=1;absoluteArcSize=1;arcSize=9;strokeWidth=1.5;fillColor=#647687;fontColor=#ffffff;strokeColor=#314354;" vertex="1" parent="1">
                        <mxGeometry x="827" y="-1172.5" width="132" height="99" as="geometry"/>
                    </mxCell>
                </UserObject>
                <UserObject label="View Bank Accounts" lucidchartObjectId="aJ.CXlvjcnIg" id="64">
                    <mxCell style="html=1;overflow=block;blockSpacing=1;whiteSpace=wrap;ellipse;fontSize=16;spacing=3.8;strokeOpacity=100;fillOpacity=100;rounded=1;absoluteArcSize=1;arcSize=9;strokeWidth=1.5;fillColor=#647687;fontColor=#ffffff;strokeColor=#314354;" vertex="1" parent="1">
                        <mxGeometry x="827" y="-1011.5" width="132" height="99" as="geometry"/>
                    </mxCell>
                </UserObject>
                <UserObject label="Delete Bank Account" lucidchartObjectId="qJ.C~30U.~fq" id="65">
                    <mxCell style="html=1;overflow=block;blockSpacing=1;whiteSpace=wrap;ellipse;fontSize=16;spacing=3.8;strokeOpacity=100;fillOpacity=100;rounded=1;absoluteArcSize=1;arcSize=9;strokeWidth=1.5;fillColor=#647687;fontColor=#ffffff;strokeColor=#314354;" vertex="1" parent="1">
                        <mxGeometry x="827" y="-687.5" width="132" height="99" as="geometry"/>
                    </mxCell>
                </UserObject>
                <UserObject label="Update Bank Account" lucidchartObjectId="qJ.CfSzeLn-t" id="66">
                    <mxCell style="html=1;overflow=block;blockSpacing=1;whiteSpace=wrap;ellipse;fontSize=16;spacing=3.8;strokeOpacity=100;fillOpacity=100;rounded=1;absoluteArcSize=1;arcSize=9;strokeWidth=1.5;fillColor=#647687;fontColor=#ffffff;strokeColor=#314354;" vertex="1" parent="1">
                        <mxGeometry x="827" y="-860.5" width="132" height="99" as="geometry"/>
                    </mxCell>
                </UserObject>
                <UserObject label="" lucidchartObjectId="rL.CQrdT94UQ" id="67">
                    <mxCell style="html=1;jettySize=18;whiteSpace=wrap;overflow=block;blockSpacing=1;fontSize=13;strokeOpacity=100;strokeWidth=0.8;rounded=1;arcSize=12;edgeStyle=orthogonalEdgeStyle;startArrow=none;endArrow=none;exitX=0.509;exitY=0.454;exitPerimeter=0;entryX=-0.001;entryY=0.567;entryPerimeter=0;" edge="1" parent="1" source="62" target="63">
                        <mxGeometry width="100" height="100" relative="1" as="geometry">
                            <Array as="points"/>
                        </mxGeometry>
                    </mxCell>
                </UserObject>
                <UserObject label="" lucidchartObjectId="vL.CSVNUjk1u" id="68">
                    <mxCell style="html=1;jettySize=18;whiteSpace=wrap;overflow=block;blockSpacing=1;fontSize=13;strokeOpacity=100;strokeWidth=0.8;rounded=1;arcSize=12;edgeStyle=orthogonalEdgeStyle;startArrow=none;endArrow=none;exitX=1;exitY=0.5;exitPerimeter=0;entryX=-0.006;entryY=0.5;entryPerimeter=0;" edge="1" parent="1" source="62" target="64">
                        <mxGeometry width="100" height="100" relative="1" as="geometry">
                            <Array as="points"/>
                        </mxGeometry>
                    </mxCell>
                </UserObject>
                <UserObject label="" lucidchartObjectId="CL.Cn.7qBkcm" id="69">
                    <mxCell style="html=1;jettySize=18;whiteSpace=wrap;overflow=block;blockSpacing=1;fontSize=13;strokeOpacity=100;strokeWidth=0.8;rounded=1;arcSize=12;edgeStyle=orthogonalEdgeStyle;startArrow=none;endArrow=none;exitX=1;exitY=0.5;exitPerimeter=0;entryX=-0.006;entryY=0.5;entryPerimeter=0;" edge="1" parent="1" source="62" target="66">
                        <mxGeometry width="100" height="100" relative="1" as="geometry">
                            <Array as="points"/>
                        </mxGeometry>
                    </mxCell>
                </UserObject>
                <UserObject label="" lucidchartObjectId="IL.CK6scGVyF" id="70">
                    <mxCell style="html=1;jettySize=18;whiteSpace=wrap;overflow=block;blockSpacing=1;fontSize=13;strokeOpacity=100;strokeWidth=0.8;rounded=1;arcSize=12;edgeStyle=orthogonalEdgeStyle;startArrow=none;endArrow=none;exitX=0.509;exitY=0.454;exitPerimeter=0;entryX=-0.006;entryY=0.5;entryPerimeter=0;" edge="1" parent="1" source="62" target="65">
                        <mxGeometry width="100" height="100" relative="1" as="geometry">
                            <Array as="points"/>
                        </mxGeometry>
                    </mxCell>
                </UserObject>
                <UserObject label="Bank system" lucidchartObjectId="hQ.C33o43nX5" id="71">
                    <mxCell style="html=1;overflow=block;blockSpacing=1;whiteSpace=wrap;fontSize=16.7;spacing=0;rounded=1;absoluteArcSize=1;arcSize=9;strokeWidth=NaN;fillColor=#647687;fontColor=#ffffff;strokeColor=#314354;" vertex="1" parent="1">
                        <mxGeometry x="777" y="-1271.5" width="198" height="49" as="geometry"/>
                    </mxCell>
                </UserObject>
                <mxCell id="72" value="DatabaseConnection" style="html=1;overflow=block;blockSpacing=1;swimlane;childLayout=stackLayout;horizontal=1;horizontalStack=0;resizeParent=1;resizeParentMax=0;resizeLast=0;collapsible=0;fontStyle=0;marginBottom=0;swimlaneFillColor=#edf5ff;startSize=28;whiteSpace=wrap;fontSize=16;align=left;spacing=0;strokeOpacity=100;fillOpacity=100;rounded=1;absoluteArcSize=1;arcSize=9;strokeWidth=1.5;" vertex="1" parent="1">
                    <mxGeometry x="-225" y="-761.5" width="270" height="200.5" as="geometry"/>
                </mxCell>
                <mxCell id="73" value="&lt;div style=&quot;display: flex; justify-content: null; text-align: null; align-items: baseline; font-size: 0; line-height: 1.25;margin-top: -2px;&quot;&gt;&lt;span&gt;&lt;span style=&quot;font-size:16px;&quot;&gt;-host: string &#10;&lt;/span&gt;&lt;/span&gt;&lt;/div&gt;&lt;div style=&quot;display: flex; justify-content: null; text-align: null; align-items: baseline; font-size: 0; line-height: 1.25;margin-top: -2px;&quot;&gt;&lt;span&gt;&lt;span style=&quot;font-size:16px;&quot;&gt;-db: string&#10;&lt;/span&gt;&lt;/span&gt;&lt;/div&gt;&lt;div style=&quot;display: flex; justify-content: null; text-align: null; align-items: baseline; font-size: 0; line-height: 1.25;margin-top: -2px;&quot;&gt;&lt;span&gt;&lt;span style=&quot;font-size:16px;&quot;&gt;-user: string&#10;&lt;/span&gt;&lt;/span&gt;&lt;/div&gt;&lt;div style=&quot;display: flex; justify-content: null; text-align: null; align-items: baseline; font-size: 0; line-height: 1.25;margin-top: -2px;&quot;&gt;&lt;span&gt;&lt;span style=&quot;font-size:16px;&quot;&gt;-pass: string -pdo: PDO&lt;/span&gt;&lt;/span&gt;&lt;/div&gt;" style="part=1;html=1;resizeHeight=0;align=left;verticalAlign=middle;spacingLeft=4;spacingRight=4;overflow=hidden;rotatable=0;points=[[0,0.5],[1,0.5]];portConstraint=eastwest;swimlaneFillColor=#edf5ff;strokeOpacity=100;fillOpacity=100;whiteSpace=wrap;fontSize=16;" vertex="1" parent="72">
                    <mxGeometry y="28" width="270" height="83" as="geometry"/>
                </mxCell>
                <mxCell id="74" value="" style="line;strokeWidth=1;align=left;verticalAlign=middle;spacingTop=-1;spacingLeft=3;spacingRight=3;rotatable=0;labelPosition=right;points=[];portConstraint=eastwest;" vertex="1" parent="72">
                    <mxGeometry y="111" width="270" height="8" as="geometry"/>
                </mxCell>
                <mxCell id="75" value="+DatabaseConnection() +getConnection(): PDO" style="part=1;resizeHeight=0;align=left;verticalAlign=middle;spacingLeft=4;spacingRight=4;rotatable=0;points=[[0,0.5],[1,0.5]];portConstraint=eastwest;swimlaneFillColor=#edf5ff;strokeOpacity=100;fillOpacity=100;whiteSpace=wrap;overflow=block;blockSpacing=1;html=1;fontSize=13;" vertex="1" parent="72">
                    <mxGeometry y="119" width="270" height="81.5" as="geometry"/>
                </mxCell>
                <mxCell id="76" value="AccountManager" style="html=1;overflow=block;blockSpacing=1;swimlane;childLayout=stackLayout;horizontal=1;horizontalStack=0;resizeParent=1;resizeParentMax=0;resizeLast=0;collapsible=0;fontStyle=0;marginBottom=0;swimlaneFillColor=#edf5ff;startSize=28;whiteSpace=wrap;fontSize=16;align=left;spacing=0;strokeOpacity=100;fillOpacity=100;rounded=1;absoluteArcSize=1;arcSize=9;strokeWidth=1.5;" vertex="1" parent="1">
                    <mxGeometry x="-453" y="-1242" width="710" height="200.5" as="geometry"/>
                </mxCell>
                <mxCell id="77" value="-dbh: PDO" style="part=1;html=1;resizeHeight=0;align=left;verticalAlign=middle;spacingLeft=4;spacingRight=4;overflow=hidden;rotatable=0;points=[[0,0.5],[1,0.5]];portConstraint=eastwest;swimlaneFillColor=#edf5ff;strokeOpacity=100;fillOpacity=100;whiteSpace=wrap;fontSize=16;" vertex="1" parent="76">
                    <mxGeometry y="28" width="710" height="83" as="geometry"/>
                </mxCell>
                <mxCell id="78" value="" style="line;strokeWidth=1;align=left;verticalAlign=middle;spacingTop=-1;spacingLeft=3;spacingRight=3;rotatable=0;labelPosition=right;points=[];portConstraint=eastwest;" vertex="1" parent="76">
                    <mxGeometry y="111" width="710" height="8" as="geometry"/>
                </mxCell>
                <mxCell id="79" value="&lt;div style=&quot;display: flex; justify-content: null; text-align: null; align-items: baseline; font-size: 0; line-height: 1.25;margin-top: -2px;&quot;&gt;&lt;span&gt;&lt;span style=&quot;font-size:16px;&quot;&gt;+AccountManager(dbConnection: DatabaseConnection) +fetchdata(table_name: string): array &#10;&lt;/span&gt;&lt;/span&gt;&lt;/div&gt;&lt;div style=&quot;display: flex; justify-content: null; text-align: null; align-items: baseline; font-size: 0; line-height: 1.25;margin-top: -2px;&quot;&gt;&lt;span&gt;&lt;span style=&quot;font-size:16px;&quot;&gt;+insert(account: Account): void &#10;&lt;/span&gt;&lt;/span&gt;&lt;/div&gt;&lt;div style=&quot;display: flex; justify-content: null; text-align: null; align-items: baseline; font-size: 0; line-height: 1.25;margin-top: -2px;&quot;&gt;&lt;span&gt;&lt;span style=&quot;font-size:16px;&quot;&gt;+modife(account: Account): void&#10;&lt;/span&gt;&lt;/span&gt;&lt;/div&gt;&lt;div style=&quot;display: flex; justify-content: null; text-align: null; align-items: baseline; font-size: 0; line-height: 1.25;margin-top: -2px;&quot;&gt;&lt;span&gt;&lt;span style=&quot;font-size:16px;&quot;&gt;+delete(account: Account): void&lt;/span&gt;&lt;/span&gt;&lt;/div&gt;" style="part=1;html=1;resizeHeight=0;align=left;verticalAlign=middle;spacingLeft=4;spacingRight=4;overflow=hidden;rotatable=0;points=[[0,0.5],[1,0.5]];portConstraint=eastwest;swimlaneFillColor=#edf5ff;strokeOpacity=100;fillOpacity=100;whiteSpace=wrap;fontSize=16;" vertex="1" parent="76">
                    <mxGeometry y="119" width="710" height="81.5" as="geometry"/>
                </mxCell>
                <UserObject label="" lucidchartObjectId="kTsEqw4LLH8." id="80">
                    <mxCell style="html=1;jettySize=18;whiteSpace=wrap;overflow=block;blockSpacing=1;fontSize=13;strokeOpacity=100;strokeWidth=0.8;rounded=1;arcSize=12;startArrow=none;endArrow=block;endFill=0;endSize=12;exitX=-0.001;exitY=0.5;exitPerimeter=0;entryX=1.002;entryY=0.384;entryPerimeter=0;edgeStyle=orthogonalEdgeStyle;" edge="1" parent="1" source="76" target="54">
                        <mxGeometry width="100" height="100" relative="1" as="geometry"/>
                    </mxCell>
                </UserObject>
                <UserObject label="" lucidchartObjectId="oTsE0ykH3VC0" id="81">
                    <mxCell style="html=1;jettySize=18;whiteSpace=wrap;overflow=block;blockSpacing=1;fontSize=13;strokeOpacity=100;strokeWidth=0.8;rounded=1;arcSize=12;startArrow=none;endArrow=block;endFill=0;endSize=12;exitX=0.5;exitY=1.004;exitPerimeter=0;entryX=0.472;entryY=-0.004;entryPerimeter=0;edgeStyle=orthogonalEdgeStyle;" edge="1" parent="1" source="76" target="72">
                        <mxGeometry width="100" height="100" relative="1" as="geometry"/>
                    </mxCell>
                </UserObject>
            </root>
        </mxGraphModel>
    </diagram>
</mxfile>